<svg width="279" height="264" viewBox="0 0 279 264" fill="none" xmlns="http://www.w3.org/2000/svg">
<path d="M253.257 122.653C249.89 121.454 246.858 120.917 244.137 120.875C227.344 120.612 217.979 141.163 216.435 157.887C214.933 174.153 218.393 192.324 224.379 199.324C225.902 201.105 227.519 202.546 229.158 203.698C237.837 209.798 250.605 208.234 258.611 201.274C269.13 192.129 273.571 174.999 274.738 163.945C275.057 152.645 271.978 129.322 253.257 122.653Z" fill="#191204" stroke="#1E1606"/>
<path d="M245.046 127.409C238.898 126.932 233.085 131.709 229.329 137.723C224.07 146.145 222.144 158.32 222.255 167.248C222.353 175.155 223.509 184.077 226.574 190.843C228.104 194.222 230.099 197.034 232.648 198.922C235.186 200.802 238.3 201.787 242.126 201.475C257.264 200.237 269.526 183.203 268.973 158.901L268.937 157.739C268.319 150.207 266.19 142.282 262.295 136.415C258.408 130.56 252.788 126.782 245.125 127.409L245.085 127.412L245.046 127.409Z" fill="#FAAE13" stroke="#FAAE13"/>
<path d="M235.663 161.502C234.87 172.329 236.948 196.758 250.868 197.67C259.925 196.93 269.794 175.111 268.462 158.82C267.736 149.943 264.305 138.04 256.795 132.682C254.718 131.199 251.992 130.71 249.61 131.626C247.21 132.549 245.51 134.296 243.271 137.305C237.993 144.398 236.285 153.002 235.663 161.502Z" fill="#E28F05" stroke="#E28F05"/>
<ellipse cx="106.417" cy="26.7366" rx="25.5395" ry="25.5393" transform="rotate(-0.402013 106.417 26.7366)" fill="black"/>
<ellipse cx="106.425" cy="26.7363" rx="19.41" ry="19.4099" transform="rotate(-0.402013 106.425 26.7363)" fill="#FCE7B8"/>
<path d="M93.6901 31.9317C97.3157 39.0574 103.984 43.0965 109.172 45.1033C109.541 45.7668 108.87 46.1277 106.56 46.1439C95.8403 46.2191 87.0893 37.5902 87.0141 26.8707C86.9389 16.1512 94.6751 11.8296 94.5718 12.0045C91.543 17.1344 90.8414 26.3329 93.6901 31.9317Z" fill="#F7D79C"/>
<path d="M109.787 37.39C112.484 36.9559 114.181 38.0499 115.276 39.2832C115.84 39.9188 116.24 40.5925 116.499 41.1139C116.627 41.3721 116.717 41.5865 116.773 41.7305C116.802 41.8024 116.821 41.8568 116.832 41.8892C116.837 41.9021 116.84 41.9116 116.842 41.9174L116.842 41.9183L116.862 41.9785L116.886 42.0379L126.054 64.2722L107.017 67.8726L104.468 44.0621C104.469 44.0254 104.471 43.9726 104.475 43.9056C104.485 43.7444 104.505 43.5031 104.547 43.2067C104.633 42.6087 104.807 41.8147 105.151 41.0054C105.822 39.4266 107.108 37.8214 109.787 37.39Z" fill="#2F291D" stroke="black" stroke-width="3"/>
<path d="M116.736 15.0386C117.499 16.2043 117.767 17.7637 117.04 18.9529C116.221 20.2925 114.601 21.0592 113.017 21.0703C110.76 21.0861 107.896 19.277 107.88 17.0202C107.864 14.7635 109.681 12.9209 111.938 12.9051C113.705 12.8927 115.526 13.1932 116.736 15.0386Z" fill="#FBF2E2"/>
<path d="M118.428 63.9375L124.039 62.8765C121.616 57.2747 116.458 45.2561 115.209 41.9957C113.96 38.7354 111.61 38.6157 110.591 38.9633L118.428 63.9375Z" fill="#80796F"/>
<path d="M257.602 162.592C262.586 217.989 221.027 264.232 142.338 260.697C63.6768 261.249 24.0688 221.951 23.6459 161.68C21.2649 113.437 77.4964 66.0275 140.969 65.5822C209.385 61.0151 255.146 103.869 257.602 162.592Z" fill="#FCE8BB" stroke="black" stroke-width="6"/>
<path d="M197.836 75.9552C135.141 48.6925 76.2263 78.7073 50.5681 101.328C50.1038 101.738 50.9374 102.857 51.5038 102.607C61.8376 98.0518 81.9753 94.864 115.832 106.982C167.301 125.405 197.531 108.985 202.174 96.7308C206.452 85.4411 201.92 78.4652 197.836 75.9552Z" fill="#FAAE13" stroke="black" stroke-width="5"/>
<path d="M233.071 133.987C235.061 136.354 237.114 138.73 238.837 141.298C249.926 157.829 246.419 191.023 236.179 208.758C233.452 213.481 230.137 217.898 226.613 222.061C208.076 243.959 171.328 248.48 153.945 248.602C121.222 248.832 69.0379 232.342 67.6185 175.653C67.4797 155.866 79.2916 137.342 101.529 130.976C116.067 126.814 129.096 128.739 159.768 132.098C191.027 131.878 212.75 109.82 233.071 133.987Z" fill="#352E22"/>
<path d="M207.349 142.992C220.559 142.899 231.451 154.891 231.557 169.905C231.662 184.919 220.939 197.063 207.729 197.156C194.518 197.248 183.627 185.256 183.522 170.242C183.416 155.229 194.138 143.085 207.349 142.992Z" fill="black" stroke="black"/>
<path d="M207.904 149.574C217.442 149.507 225.909 158.455 225.994 170.454C226.078 182.454 217.736 191.52 208.199 191.586C198.662 191.653 190.194 182.705 190.11 170.706C190.026 158.707 198.367 149.641 207.904 149.574Z" fill="black" stroke="#1BB8B3" stroke-width="6"/>
<ellipse cx="4.5971" cy="5.10786" rx="4.5971" ry="5.10786" transform="matrix(0.966298 -0.257426 0.257434 0.966296 210.504 156.01)" fill="#FCFCFC"/>
<path d="M117.478 146.688C130.688 146.595 141.58 158.587 141.685 173.6C141.791 188.614 131.068 200.759 117.858 200.851C104.647 200.944 93.7559 188.951 93.6505 173.937C93.5454 158.924 104.267 146.78 117.478 146.688Z" fill="black" stroke="black"/>
<path d="M118.033 153.269C127.571 153.202 136.038 162.15 136.123 174.15C136.207 186.149 127.865 195.215 118.328 195.282C108.791 195.349 100.323 186.401 100.239 174.401C100.155 162.402 108.496 153.336 118.033 153.269Z" fill="black" stroke="#1BB8B3" stroke-width="6"/>
<ellipse cx="4.5971" cy="5.10786" rx="4.5971" ry="5.10786" transform="matrix(0.966298 -0.257426 0.257434 0.966296 120.637 159.707)" fill="#FCFCFC"/>
<path d="M136.788 205.304C154.01 213.764 180.052 207.554 190.92 203.391C199.89 200.681 197.427 208.713 195.075 213.067C192.243 219.954 186.669 225.169 181.101 228.806C173.52 233.76 163.926 235.088 154.874 234.803C141.59 234.385 131.277 220.666 128.655 210.979C126.557 203.23 133.203 203.967 136.788 205.304Z" fill="#191104" stroke="black" stroke-width="2"/>
<path d="M173.754 232.114C169.623 225.843 156.372 215.482 136.409 224.203C140.541 230.644 154.387 238.38 173.754 232.114Z" fill="#A82C2C"/>
<path d="M18.6786 141.324C21.6566 139.903 24.3943 139.107 26.8995 138.791C43.3729 136.712 54.0575 156.699 56.9618 173.047C59.8218 189.146 58.0616 207.628 52.908 215.149C51.847 216.697 50.7078 218.027 49.5291 219.164C41.6008 226.813 27.8979 226.378 19.3668 219.409C9.08204 211.006 3.62007 194.954 1.61477 184.35C0.344117 173.121 1.3029 149.618 18.6786 141.324Z" fill="#191204" stroke="#1E1606"/>
<path d="M26.962 145.338C32.7915 144.324 38.7636 148.554 42.8811 154.218C48.6423 162.143 51.5294 174.105 52.1859 183.011C52.7672 190.896 52.4207 199.889 50.0595 206.901C48.88 210.404 47.208 213.381 44.9282 215.485C42.6588 217.58 39.7641 218.831 36.0796 218.857C28.661 218.909 21.6176 214.855 16.2612 207.644C11.0722 200.658 7.48732 190.731 6.72763 178.817L6.66383 177.657C6.61339 170.097 7.97691 162.013 11.2109 155.823C14.4392 149.644 19.4994 145.396 26.88 145.344L26.921 145.344L26.962 145.338Z" fill="#FAAE13" stroke="#FAAE13"/>
<path d="M38.8615 178.471C40.5458 189.186 40.6403 213.704 27.3753 215.84C18.6304 215.902 7.30724 195.038 7.19256 178.694C7.13061 169.865 9.36281 157.841 15.9675 151.787C17.9133 150.004 20.7019 149.196 23.2073 150.026C25.4552 150.771 27.1896 152.346 29.5019 155.04C35.167 161.641 37.5395 170.06 38.8615 178.471Z" fill="#E28F05" stroke="#E28F05"/>
<path d="M33.7647 180.549C35.7208 192.412 33.1841 203.438 26.7984 204.491C20.4127 205.544 13.6504 196.781 11.6942 184.918C9.7381 173.055 13.329 162.584 19.7146 161.531C26.1003 160.478 31.8085 168.686 33.7647 180.549Z" fill="black"/>
<path d="M17.4124 181.689C17.4514 187.238 19.0971 192.242 21.421 195.842C23.7638 199.471 26.7118 201.558 29.3098 201.538C29.4304 201.537 29.5702 201.547 29.7008 201.594C29.8344 201.642 30.0371 201.762 30.1032 202.018C30.162 202.246 30.0706 202.435 30.015 202.526C29.9523 202.628 29.8687 202.716 29.7903 202.788C29.4827 203.07 28.9288 203.387 28.3061 203.654C27.6717 203.926 26.9125 204.17 26.1659 204.278C25.4548 204.382 24.6936 204.369 24.0609 204.081C21.8673 203.533 19.2354 201.423 17.644 198.829C15.8298 196.563 14.2577 193.337 13.1332 189.92C12.0038 186.489 11.3119 182.826 11.2898 179.689C11.2412 172.752 12.2451 168.782 14.8563 165.072C15.9996 163.446 18.0421 161.774 20.8586 161.754C21.7027 161.748 22.9159 162.014 23.7876 162.342C24.2084 162.5 24.6336 162.703 24.8837 162.949C25.0034 163.068 25.187 163.299 25.1442 163.615C25.1003 163.938 24.8518 164.117 24.6747 164.207C21.2293 165.96 19.2911 168.426 18.2688 171.378C17.2386 174.353 17.1304 177.847 17.4112 181.655L17.4123 181.671L17.4124 181.689Z" fill="#BF7906" stroke="#BF7906"/>
</svg>
