<svg width="111" height="196" viewBox="0 0 111 196" fill="none" xmlns="http://www.w3.org/2000/svg">
<path d="M31.5688 188.842C-14.8312 154.842 3.56882 121.008 18.5688 108.342L22.0703 105.342L81.0703 133.342C85.4703 199.742 49.9027 198.008 31.5688 188.842Z" fill="#F8A90B" stroke="black" stroke-width="4"/>
<path d="M41.5 190.342C-1.3 166.342 19.3181 129.342 33.9847 113.342L22.4861 107.342C2.88608 120.142 3.4997 142.675 4.9997 151.842C16.1997 181.842 33 188.342 41.5 190.342Z" fill="#DD9607"/>
<path d="M83.954 129.858L92.454 101.358C91.2547 59.3575 60.9537 66.1909 45.9531 74.8575C30.7531 90.8575 23.287 104.524 21.454 109.358C20.6207 113.358 20.354 123.558 25.954 132.358C32.954 143.358 36.954 142.858 48.454 138.358C57.654 134.758 65.2873 136.858 67.954 138.358C78.354 145.158 82.954 135.524 83.954 129.858Z" fill="#FAEFD8" stroke="black" stroke-width="4"/>
<path d="M34.0278 115.347C32.4278 97.7468 56.8333 77.8418 68.5 70.3418C62.3719 69.8412 53.5663 72.5347 49 74.8411C36 85.3418 29.8813 97.7176 23.5313 109.34C18.2354 119.033 28 131.841 30.4986 136.847C33.2195 142.298 43.3597 138.847 45.5264 136.847C42.3602 137.013 35.6278 132.947 34.0278 115.347Z" fill="#F2DFBE"/>
<path d="M57.5099 7.84239C57.5099 7.84239 56 31.3418 64.506 30.8418C68.715 38.3161 106.51 45.5582 106.51 45.5582C113.71 36.3582 103.51 21.0588 97.5099 14.559C75.9099 -4.64096 61.3432 2.50906 57.5099 7.84239Z" fill="#373024" stroke="black" stroke-width="4" stroke-linecap="round"/>
<path d="M59.5 29.3418L44.5 75.3418C45.7 110.542 77.1667 104.175 92.5 96.8418L105 45.3418C82.2 12.5418 65.1667 21.0085 59.5 29.3418Z" fill="#373024" stroke="black" stroke-width="4" stroke-linecap="round"/>
<path d="M95.1654 93.3418C95.1654 105.492 84.3341 122.842 66.6172 119.342C52.8374 115.342 49.1657 107.342 50.1502 94.3418C50.1502 82.1915 61.5523 71.3418 73.5114 71.3418C85.4706 71.3418 95.1654 81.1915 95.1654 93.3418Z" fill="#FCE8BB" stroke="black" stroke-width="3"/>
<path d="M55.1164 110.899C52.1442 107.269 51.6179 103.342 51.6172 97.8418C54.6118 104.814 59.1172 111.842 66.6172 113.342C74.8772 115.658 83.9543 112.009 88.6172 108.342C78.8125 123.679 62.5135 119.933 55.1164 110.899Z" fill="#EAD39E"/>
</svg>
