<svg width="123" height="173" viewBox="0 0 123 173" fill="none" xmlns="http://www.w3.org/2000/svg">
<path d="M5.38642 137.336C12.3739 89.5959 50.8026 95.428 62.8797 111.4C63.772 118.659 66.8039 134.202 71.7932 138.306C74.208 141.433 76.3904 148.295 65.8016 150.719C61.516 150.066 53.3269 146.048 51.6198 135.252C52.3383 142.414 53.887 152.261 54.8537 153.201C56.296 154.603 52.7577 167.498 41.2593 159.123C38.3572 168.648 28.3626 163.887 23.728 160.316C10.5122 164.768 4.69994 144.775 5.38642 137.336Z" fill="#373024"/>
<path d="M62.8797 111.4L64.8648 111.156L64.7992 110.623L64.475 110.194L62.8797 111.4ZM5.38642 137.336L3.4075 137.046L3.39978 137.099L3.39488 137.152L5.38642 137.336ZM19.2257 136.547C19.9326 135.699 19.8178 134.438 18.9691 133.731C18.1204 133.024 16.8593 133.139 16.1523 133.987L17.689 135.267L19.2257 136.547ZM71.7932 138.306L73.3762 137.083L73.2381 136.905L73.0636 136.761L71.7932 138.306ZM65.8016 150.719L65.5004 152.696L65.8768 152.753L66.2479 152.668L65.8016 150.719ZM51.3061 131.479L53.3024 131.358L49.3063 131.506L51.3061 131.479ZM54.8537 153.201L56.248 151.767L56.248 151.767L54.8537 153.201ZM33.3975 132.886C33.4978 131.786 32.6873 130.813 31.5873 130.713C30.4873 130.613 29.5143 131.423 29.414 132.523L31.4057 132.705L33.3975 132.886ZM62.8797 111.4L64.475 110.194C57.9759 101.599 44.5722 95.8446 31.8142 98.5185C18.7749 101.251 6.98507 112.604 3.4075 137.046L5.38642 137.336L7.36533 137.626C10.7753 114.328 21.6935 104.727 32.6347 102.433C43.8572 100.081 55.7064 105.229 61.2844 112.606L62.8797 111.4ZM5.38642 137.336L3.39488 137.152C3.01041 141.318 4.40443 148.579 7.60036 154.265C9.21247 157.133 11.381 159.78 14.1994 161.387C17.0927 163.037 20.5272 163.505 24.3665 162.211L23.728 160.316L23.0894 158.421C20.3208 159.353 18.0729 158.992 16.1809 157.913C14.214 156.791 12.4944 154.809 11.0873 152.305C8.24481 147.248 7.07595 140.792 7.37796 137.52L5.38642 137.336ZM23.728 160.316L25.4166 159.244C23.5374 156.283 20.9941 151.516 19.4758 146.892C18.7158 144.576 18.2448 142.392 18.1982 140.539C18.1512 138.669 18.5386 137.372 19.2257 136.547L17.689 135.267L16.1523 133.987C14.6013 135.849 14.1397 138.263 14.1994 140.639C14.2596 143.031 14.8509 145.628 15.6754 148.139C17.3261 153.168 20.0405 158.238 22.0394 161.388L23.728 160.316ZM62.8797 111.4L60.8946 111.644C61.3501 115.35 62.3482 121.153 63.8748 126.578C64.638 129.29 65.5465 131.955 66.6079 134.235C67.6485 136.471 68.9271 138.538 70.5228 139.85L71.7932 138.306L73.0636 136.761C72.1646 136.022 71.1933 134.607 70.2342 132.547C69.296 130.532 68.4554 128.089 67.7253 125.494C66.2656 120.307 65.3016 114.71 64.8648 111.156L62.8797 111.4ZM71.7932 138.306L70.2101 139.528C71.2516 140.877 72.0279 142.788 71.7117 144.388C71.4496 145.714 70.244 147.65 65.3553 148.769L65.8016 150.719L66.2479 152.668C71.948 151.363 74.9456 148.656 75.6358 145.164C76.2719 141.945 74.7496 138.862 73.3762 137.083L71.7932 138.306ZM65.8016 150.719L66.1028 148.742C62.453 148.186 55.1338 144.67 53.5952 134.939L51.6198 135.252L49.6443 135.564C51.5199 147.426 60.579 151.946 65.5004 152.696L65.8016 150.719ZM51.6198 135.252L53.5952 134.939C53.4248 133.862 53.3234 132.701 53.3059 131.451L51.3061 131.479L49.3063 131.506C49.3263 132.939 49.4429 134.29 49.6443 135.564L51.6198 135.252ZM51.3061 131.479L49.3098 131.599C49.3784 132.734 49.4889 134.047 49.6298 135.451L51.6198 135.252L53.6098 135.052C53.4725 133.684 53.3671 132.425 53.3024 131.358L51.3061 131.479ZM51.6198 135.252L49.6298 135.451C49.9933 139.075 50.5662 143.374 51.1727 146.899C51.4752 148.657 51.7917 150.256 52.1016 151.493C52.2556 152.108 52.4177 152.673 52.588 153.139C52.673 153.372 52.7719 153.613 52.8879 153.838C52.9897 154.036 53.17 154.353 53.4595 154.635L54.8537 153.201L56.248 151.767C56.4167 151.931 56.4716 152.061 56.4441 152.007C56.4309 151.982 56.3966 151.908 56.3454 151.767C56.2432 151.488 56.1201 151.073 55.9817 150.521C55.7069 149.424 55.41 147.936 55.1147 146.221C54.5256 142.797 53.9648 138.591 53.6098 135.052L51.6198 135.252ZM54.8537 153.201L53.4594 154.635C53.2164 154.398 53.153 154.177 53.1484 154.162C53.1382 154.127 53.152 154.16 53.1569 154.281C53.1666 154.524 53.1333 154.92 53.0111 155.425C52.7656 156.44 52.2333 157.6 51.4304 158.482C50.6582 159.33 49.6719 159.893 48.382 159.929C47.0437 159.966 45.0934 159.441 42.4368 157.506L41.2593 159.123L40.0818 160.74C43.1743 162.992 45.9782 163.997 48.4922 163.927C51.0546 163.857 53.0187 162.679 54.3881 161.175C55.7268 159.705 56.5274 157.901 56.8989 156.366C57.0853 155.596 57.1817 154.82 57.1537 154.121C57.1398 153.773 57.0929 153.392 56.9817 153.019C56.8762 152.665 56.6713 152.179 56.248 151.767L54.8537 153.201ZM41.2593 159.123L42.4368 157.506C38.334 154.518 35.9189 149.891 34.6055 145.125C33.2936 140.365 33.1429 135.679 33.3975 132.886L31.4057 132.705L29.414 132.523C29.1203 135.745 29.297 140.918 30.7492 146.188C32.2 151.453 34.9858 157.028 40.0818 160.74L41.2593 159.123ZM23.728 160.316L22.5073 161.9C24.9526 163.784 28.9436 166.103 32.8863 166.614C34.8956 166.874 37.0488 166.683 38.9646 165.552C40.9069 164.404 42.3366 162.449 43.1724 159.706L41.2593 159.123L39.3461 158.54C38.731 160.559 37.823 161.58 36.9303 162.108C36.011 162.651 34.8318 162.832 33.4004 162.647C30.4616 162.266 27.1379 160.419 24.9486 158.732L23.728 160.316Z" fill="black"/>
<path d="M105.073 21.0897C110.341 25.3537 112.487 31.6283 112.291 38.0018C112.097 44.314 109.614 50.8506 105.448 56.0402C102.901 60.1165 98.5948 65.841 93.9047 70.3779C88.5752 75.5331 79.7302 81.7424 73.5604 85.5655C71.3332 86.9455 69.213 87.3889 67.1396 87.0084C65.1601 86.6451 63.4663 85.5707 61.9868 84.4384C61.2372 83.8647 60.4887 83.2324 59.7612 82.6183C59.0217 81.994 58.2943 81.3795 57.5318 80.7874C56.0107 79.6065 54.4274 78.576 52.6207 77.908C50.1269 76.9861 47.448 76.6482 44.8092 76.6763C40.8489 76.7186 37.1346 75.5275 34.9442 73.0627C33.8217 71.7995 33.1322 70.2251 33.0754 68.4394C33.0192 66.6737 33.5854 64.8551 34.7013 63.064C39.0165 56.1376 44.9102 47.9347 50.8416 40.946C53.8076 37.4513 56.8046 34.235 59.6364 31.625C62.4409 29.0402 65.1934 26.9467 67.6715 25.8161C72.9399 23.4125 79.6294 20.1679 86.1716 18.5272C92.6947 16.8914 99.6489 16.6998 105.073 21.0897Z" fill="#373024" stroke="black" stroke-width="4"/>
<path d="M51.9524 55.207C57.5765 55.1114 62.1963 56.8041 65.9904 59.4781C73.4458 64.7323 77.6409 73.7536 80.4682 79.9095L80.9915 81.0481L80.1949 82.0151C77.1245 85.7429 74.8497 88.9775 72.8444 93.4441C70.8227 97.9474 69.0415 103.778 67.0695 112.725L66.219 116.583L63.613 113.614C54.3765 103.088 44.7122 100.454 36.4375 101.225C28.0337 102.007 20.8391 106.329 16.8287 110.062L14.456 112.269L13.5469 109.158C12.6976 106.253 13.2312 102.458 14.3118 98.5578C15.4177 94.5658 17.2071 90.0895 19.2476 85.6269C23.3308 76.697 28.533 67.5813 31.627 62.121L31.9032 61.6343L32.3916 61.3612C39.9066 57.1609 46.3619 55.302 51.9524 55.207Z" fill="#FCE5B5" stroke="black" stroke-width="4"/>
<path d="M68.4916 99.891C71.4485 105.867 72.338 109.928 71.5265 112.836C70.6419 116.005 67.9656 117.105 66.2834 117.74L64.811 118.296L63.9247 116.996C54.4025 103.035 44.5485 99.2091 36.3187 99.6288C27.9116 100.058 20.6579 104.938 16.5684 109.373L14.6738 111.428L13.3402 108.972C12.3553 107.158 11.6922 106.031 11.2355 105.234C10.8348 104.534 10.4323 103.838 10.2694 103.127C10.0785 102.293 10.2418 101.559 10.326 101.093C10.4221 100.562 10.5582 99.8111 10.6553 98.5068L10.6993 97.9277L11.046 97.4615C20.7315 84.4537 33.1644 80.9839 44.1853 82.886C55.0371 84.759 64.5104 91.8454 68.4916 99.891Z" fill="#F8A90B" stroke="black" stroke-width="4" stroke-linecap="round"/>
</svg>
