<svg width="233" height="229" viewBox="0 0 233 229" fill="none" xmlns="http://www.w3.org/2000/svg">
<path d="M23.2938 140.799C21.3438 127.092 31.3179 114.475 45.3871 112.406C50.3399 111.071 57.9095 109.723 64.8625 109.619C72.4366 109.505 80.2131 111.137 87.3038 111.926C87.5163 111.95 87.7268 111.975 87.9348 112C90.6311 112.327 92.6992 113.398 94.2823 115.024C95.8187 116.602 96.7999 118.603 97.5443 120.633C98.2819 122.646 98.8616 124.914 99.4567 127.011C100.068 129.166 100.72 131.232 101.632 133.118C103.024 135.991 105.151 138.45 107.53 140.506C110.55 143.117 112.502 146.532 112.484 149.881C112.476 151.59 111.947 153.247 110.816 154.648C109.694 156.039 108.071 157.066 106.047 157.698C95.5589 160.973 81.2721 164.225 69.5844 165.373C58.8614 166.425 45.9893 166.986 36.2841 160.578C29.5181 156.11 24.4182 148.703 23.2938 140.799Z" fill="#373024" stroke="black" stroke-width="4"/>
<path d="M100.961 151.667C95.7635 148.861 92.4073 144.936 90.3105 140.537C86.1872 131.885 86.9865 121.456 87.5688 114.332L87.6711 113.082L88.8402 112.63L89.1458 112.51C93.925 110.659 97.7768 109.161 102.025 106.395C106.272 103.628 110.994 99.5386 117.328 92.4473L119.96 89.5004L120.776 93.3666C123.835 107.848 131.244 114.944 139.111 118.205C147.115 121.522 155.866 120.973 161.564 119.594L164.715 118.832L163.983 121.989C163.27 125.067 160.838 128.261 157.831 131.286C154.758 134.378 150.804 137.564 146.624 140.611C138.262 146.706 128.774 152.395 123.108 155.816L122.629 156.105L122.069 156.104C113.003 156.082 106.129 154.457 100.961 151.667Z" fill="#FCE5B5" stroke="black" stroke-width="4"/>
<path d="M108.898 102.146C109.267 95.1273 110.548 90.9722 112.765 88.7496C115.175 86.3348 118.152 86.6967 120.026 86.982L121.581 87.2186L121.718 88.7861C123.259 106.569 130.356 115.215 138.179 119.102C146.162 123.068 155.382 122.326 161.451 120.356L164.109 119.493L164.068 122.288C164.036 124.466 164.063 125.847 164.071 126.815C164.078 127.67 164.087 128.5 163.875 129.219C163.627 130.059 163.114 130.631 162.793 131.019C162.428 131.46 161.913 132.083 161.147 133.236L160.825 133.72L160.295 133.956C144.708 140.892 131.531 137.664 122.414 130.246C113.431 122.937 108.402 111.561 108.898 102.146Z" fill="#F8A90B" stroke="black" stroke-width="4" stroke-linecap="round"/>
<path d="M173.121 114.415C166.739 120.927 149.486 130.169 131.533 115.041C125.758 106.792 117.057 87.2417 128.453 75.0284C130.069 69.5057 133.298 57.7895 133.287 55.1062C133.272 51.7521 139.952 45.0151 146.703 55.0485C151.835 62.6757 148.49 70.5411 145.854 74.001C156.042 61.3713 169.633 48.538 180.689 54.0068C186.523 56.8924 182.647 63.3247 176.996 69.0772C183.457 64.7716 191.195 61.9828 196.841 66.4599C204.011 72.1455 192.736 80.9557 182.26 86.8779C187.047 85.2128 191.536 84.8961 193.791 85.0335C216.174 90.3044 189.337 106.817 173.121 114.415Z" fill="#373024"/>
<path d="M145.447 74.5077C148.116 71.3657 152.104 63.0752 146.703 55.0485C139.952 45.0151 133.272 51.7521 133.287 55.1062C133.298 57.7895 130.069 69.5057 128.453 75.0284C117.057 87.2417 125.758 106.792 131.533 115.041C149.486 130.169 166.739 120.927 173.121 114.415C189.337 106.817 216.174 90.3044 193.791 85.0335C190.362 84.8245 181.764 85.666 174.809 90.7048C185.892 85.5884 205.816 73.5765 196.841 66.4599C187.867 59.3433 173.604 70.5852 167.595 77.0957C175.694 71.2467 189.652 58.4404 180.689 54.0068C169.485 48.4648 155.677 61.718 145.447 74.5077ZM145.447 74.5077C148.29 77.0297 153.003 84.4929 149.109 94.1695" stroke="black" stroke-width="4" stroke-linecap="round"/>
</svg>
