<svg width="143" height="186" viewBox="0 0 143 186" fill="none" xmlns="http://www.w3.org/2000/svg">
<path d="M29.771 166.161C-7.92689 129.085 9.54738 107.52 24.8701 97.9867L45.6097 90.9034L83.081 116.688C92.5188 189.072 49.0564 185.129 29.771 166.161Z" fill="#F8A90B" stroke="black" stroke-width="4"/>
<path d="M40.9366 103.881C26.448 115.697 4.90355 137.64 31.6255 164.177C33.6212 165.894 35.6466 167.64 37.6772 169.583C35.4312 167.761 33.4196 165.959 31.6255 164.177C22.7254 156.521 14.4162 149.439 8.87604 127.995C8.72672 119.458 11.7485 105.944 31.2729 96.8996L40.9366 103.881Z" fill="#DD9607"/>
<path d="M80.196 130.236L99.6372 111.608C117.829 78.0968 91.6331 70.0884 76.261 70.273C57.401 76.1282 42.848 84.8565 39.2527 87.8429C36.7981 90.6161 30.921 96.2422 31.1848 105.624C31.5145 117.352 46.5997 141.694 80.196 130.236Z" fill="#FAEFD8" stroke="black" stroke-width="4"/>
<path d="M47.8939 96.1197C54.681 81.5928 81.9691 77.2903 94.2702 76.5503C89.8286 73.4523 82.0814 72.7821 77.553 72.5777C62.8709 75.0855 52.1503 82.2179 42.0251 88.5415C33.5805 93.8155 31.9016 106.729 33.5457 110.888C36.4227 118.166 43.04 124.813 45.3218 125.515C42.8335 124.248 41.1068 110.647 47.8939 96.1197Z" fill="#F2DFBE"/>
<path d="M88.9831 104.461C88.9831 104.461 110.349 94.5623 105.847 87.3284C110.403 80.0602 108.635 70.5609 108.635 70.5609C97.1132 68.6302 78.5331 55.5568 64.875 71.7953C58.3252 99.9432 82.4665 103.641 88.9831 104.461Z" fill="#373024" stroke="black" stroke-width="4" stroke-linecap="round"/>
<path d="M84.3012 29.3106L120.806 61.0659C136.973 78.1631 116.83 106.514 99.7487 102.013L36.9886 56.3685C39.6947 16.5143 75.1579 25.0733 84.3012 29.3106Z" fill="#373024" stroke="black" stroke-width="4" stroke-linecap="round"/>
<path d="M123.193 90.3831C119.078 102.036 104.171 115.486 90.5856 106.913C80.4516 99.0198 80.0998 90.2664 85.3234 78.0886C89.4384 66.436 102.619 59.3876 112.59 62.9087C122.561 66.4297 127.308 78.7305 123.193 90.3831Z" fill="#FCE8BB" stroke="black" stroke-width="3"/>
<path d="M83.862 95.4314C82.6134 91.0748 83.5045 87.1539 85.3666 81.8789C85.502 89.4473 86.8782 97.5137 92.6232 101.16C98.7253 105.814 107.529 104.987 112.659 102.843C99.2898 114.665 86.9695 106.274 83.862 95.4314Z" fill="#EAD39E"/>
</svg>
