<svg width="124" height="174" viewBox="0 0 124 174" fill="none" xmlns="http://www.w3.org/2000/svg">
<path d="M117.527 137.286C110.224 89.5936 71.8343 95.6797 59.8631 111.731C59.0188 118.996 56.0898 134.559 51.1278 138.695C48.7337 141.839 46.5967 148.715 57.2013 151.068C61.4825 150.387 69.6449 146.315 71.2805 135.508C70.6094 142.675 69.1259 152.532 68.1654 153.478C66.7324 154.89 70.356 167.761 81.7987 159.31C84.7637 168.815 94.7267 163.989 99.3375 160.387C112.583 164.752 118.262 144.72 117.527 137.286Z" fill="#373024"/>
<path d="M59.8631 111.731L57.8765 111.501L57.9385 110.967L58.2599 110.536L59.8631 111.731ZM117.527 137.286L119.504 136.983L119.512 137.036L119.517 137.089L117.527 137.286ZM103.682 136.589C102.97 135.745 103.076 134.484 103.92 133.771C104.764 133.058 106.026 133.165 106.739 134.009L105.211 135.299L103.682 136.589ZM51.1278 138.695L49.5367 137.484L49.6736 137.304L49.8472 137.159L51.1278 138.695ZM57.2013 151.068L57.5156 153.044L57.1396 153.103L56.7679 153.021L57.2013 151.068ZM71.5693 131.733L69.5722 131.625L73.5692 131.748L71.5693 131.733ZM68.1654 153.478L66.7616 152.053L66.7616 152.053L68.1654 153.478ZM89.4868 133.022C89.3792 131.923 90.1832 130.944 91.2825 130.837C92.3819 130.729 93.3602 131.533 93.4678 132.633L91.4773 132.827L89.4868 133.022ZM59.8631 111.731L58.2599 110.536C64.7019 101.898 78.0673 96.0551 90.8427 98.6445C103.9 101.291 115.764 112.565 119.504 136.983L117.527 137.286L115.55 137.589C111.986 114.315 101.004 104.785 90.0481 102.565C78.8103 100.287 66.9954 105.513 61.4663 112.927L59.8631 111.731ZM117.527 137.286L119.517 137.089C119.929 141.253 118.583 148.523 115.425 154.23C113.832 157.109 111.681 159.769 108.873 161.395C105.991 163.064 102.559 163.555 98.7115 162.287L99.3375 160.387L99.9635 158.488C102.738 159.402 104.984 159.025 106.868 157.934C108.828 156.799 110.534 154.806 111.925 152.293C114.734 147.217 115.86 140.754 115.536 137.483L117.527 137.286ZM99.3375 160.387L97.6419 159.327C99.5015 156.353 102.013 151.57 103.501 146.935C104.245 144.615 104.702 142.427 104.736 140.574C104.771 138.704 104.375 137.41 103.682 136.589L105.211 135.299L106.739 134.009C108.302 135.861 108.78 138.271 108.736 140.648C108.691 143.04 108.117 145.641 107.309 148.157C105.692 153.197 103.011 158.285 101.033 161.448L99.3375 160.387ZM59.8631 111.731L61.8497 111.962C61.4187 115.671 60.4591 121.48 58.9684 126.915C58.2232 129.632 57.3323 132.304 56.286 134.591C55.2603 136.833 53.9954 138.909 52.4084 140.232L51.1278 138.695L49.8472 137.159C50.7412 136.414 51.7032 134.993 52.6486 132.927C53.5735 130.905 54.3979 128.457 55.1108 125.857C56.5362 120.661 57.4632 115.057 57.8765 111.501L59.8631 111.731ZM51.1278 138.695L52.7189 139.907C51.6864 141.263 50.9228 143.179 51.2495 144.777C51.5203 146.102 52.7388 148.029 57.6347 149.116L57.2013 151.068L56.7679 153.021C51.0593 151.754 48.0439 149.067 47.3306 145.579C46.6732 142.364 48.1751 139.271 49.5367 137.484L51.1278 138.695ZM57.2013 151.068L56.8871 149.093C60.5331 148.513 67.8289 144.949 69.3031 135.209L71.2805 135.508L73.258 135.807C71.4609 147.682 62.432 152.261 57.5156 153.044L57.2013 151.068ZM71.2805 135.508L69.3031 135.209C69.4663 134.13 69.5601 132.968 69.5693 131.718L71.5693 131.733L73.5692 131.748C73.5587 133.18 73.451 134.532 73.258 135.807L71.2805 135.508ZM71.5693 131.733L73.5664 131.84C73.5052 132.976 73.4034 134.289 73.2718 135.694L71.2805 135.508L69.2893 135.321C69.4175 133.952 69.5146 132.693 69.5722 131.625L71.5693 131.733ZM71.2805 135.508L73.2718 135.694C72.9323 139.32 72.3879 143.623 71.8047 147.152C71.5138 148.912 71.2079 150.513 70.9062 151.752C70.7563 152.368 70.5979 152.934 70.4306 153.402C70.3472 153.635 70.2499 153.877 70.1354 154.103C70.035 154.301 69.8567 154.619 69.5691 154.903L68.1654 153.478L66.7616 152.053C66.5941 152.218 66.54 152.349 66.5671 152.295C66.5802 152.269 66.614 152.195 66.6643 152.055C66.7646 151.774 66.885 151.359 67.0197 150.806C67.2873 149.707 67.5743 148.218 67.8582 146.5C68.4247 143.072 68.9576 138.863 69.2893 135.321L71.2805 135.508ZM68.1654 153.478L69.5691 154.903C69.8106 154.665 69.8726 154.443 69.877 154.428C69.887 154.393 69.8734 154.426 69.8693 154.547C69.8612 154.79 69.8972 155.186 70.0227 155.69C70.275 156.703 70.8148 157.86 71.6236 158.736C72.4014 159.579 73.3914 160.136 74.6815 160.163C76.02 160.191 77.9668 159.654 80.6106 157.701L81.7987 159.31L82.9869 160.919C79.9094 163.192 77.1121 164.215 74.5978 164.162C72.0349 164.109 70.0631 162.944 68.6838 161.449C67.3354 159.988 66.5229 158.19 66.1412 156.657C65.9497 155.887 65.8482 155.113 65.8716 154.414C65.8832 154.065 65.9275 153.684 66.0362 153.31C66.1395 152.955 66.3411 152.468 66.7616 152.053L68.1654 153.478ZM81.7987 159.31L80.6106 157.701C84.6935 154.686 87.078 150.043 88.3598 145.269C89.6402 140.5 89.7598 135.813 89.4868 133.022L91.4773 132.827L93.4678 132.633C93.7828 135.853 93.6403 141.027 92.223 146.306C90.807 151.58 88.0582 157.173 82.9869 160.919L81.7987 159.31ZM99.3375 160.387L100.569 161.963C98.1359 163.864 94.1603 166.208 90.2211 166.745C88.2135 167.019 86.0591 166.843 84.1358 165.724C82.186 164.589 80.7435 162.643 79.8895 159.906L81.7987 159.31L83.708 158.715C84.3365 160.729 85.2512 161.745 86.1474 162.266C87.0702 162.803 88.2506 162.977 89.6808 162.782C92.617 162.382 95.9283 160.512 98.1064 158.811L99.3375 160.387Z" fill="black"/>
<path d="M17.0681 21.7031C11.8284 26.0018 9.72346 32.2905 9.96183 38.6625C10.198 44.9733 12.7239 51.4934 16.9237 56.6552C19.4978 60.7146 23.842 66.4105 28.5621 70.9162C33.9255 76.0361 42.8114 82.1868 49.0063 85.9689C51.2426 87.3342 53.3657 87.7635 55.4366 87.3693C57.4136 86.993 59.1003 85.9073 60.5723 84.7653C61.3181 84.1867 62.0623 83.5495 62.7857 82.9305C63.5211 82.3013 64.2444 81.682 65.003 81.085C66.5162 79.894 68.0927 78.8531 69.895 78.1731C72.3826 77.2347 75.0592 76.8791 77.6982 76.8898C81.6586 76.9058 85.365 75.6902 87.539 73.2109C88.6531 71.9404 89.3322 70.3614 89.3772 68.5754C89.4217 66.8094 88.8435 64.9946 87.7158 63.2109C83.3548 56.3131 77.407 48.1495 71.4295 41.2002C68.4405 37.7252 65.4223 34.5288 62.5732 31.9375C59.7517 29.3713 56.9854 27.2961 54.4999 26.182C49.2157 23.8132 42.5049 20.613 35.9519 19.0156C29.4182 17.4229 22.4629 17.2773 17.0681 21.7031Z" fill="#373024" stroke="black" stroke-width="4"/>
<path d="M70.4156 55.4666C64.791 55.4083 60.1825 57.1315 56.4061 59.8305C48.9857 65.134 44.8503 74.1827 42.0638 80.3572L41.548 81.4993L42.3511 82.461C45.446 86.1684 47.7422 89.3879 49.777 93.8411C51.8285 98.3309 53.6482 104.15 55.6794 113.083L56.5553 116.936L59.1416 113.95C68.3083 103.363 77.9549 100.665 86.2346 101.381C94.6434 102.108 101.866 106.382 105.901 110.088L108.289 112.28L109.177 109.163C110.007 106.252 109.448 102.461 108.342 98.5675C107.21 94.5829 105.391 90.1185 103.321 85.6695C99.1787 76.7668 93.9163 67.6857 90.7863 62.246L90.5069 61.7612L90.0167 61.4913C82.474 57.3408 76.0066 55.5247 70.4156 55.4666Z" fill="#FCE5B5" stroke="black" stroke-width="4"/>
<path d="M54.1719 100.259C51.2546 106.255 50.392 110.322 51.2227 113.224C52.1283 116.387 54.8118 117.469 56.4982 118.093L57.9742 118.64L58.8519 117.334C68.2816 103.31 78.11 99.419 86.3424 99.7843C94.7521 100.157 102.038 104.989 106.157 109.398L108.065 111.44L109.382 108.975C110.355 107.155 111.011 106.023 111.462 105.223C111.858 104.521 112.256 103.822 112.414 103.11C112.6 102.275 112.432 101.542 112.344 101.077C112.245 100.546 112.104 99.7962 111.998 98.4926L111.95 97.9138L111.6 97.4499C101.829 84.5064 89.3733 81.119 78.3652 83.0939C67.5261 85.0386 58.0999 92.1875 54.1719 100.259Z" fill="#F8A90B" stroke="black" stroke-width="4" stroke-linecap="round"/>
</svg>
