<svg width="236" height="221" viewBox="0 0 236 221" fill="none" xmlns="http://www.w3.org/2000/svg">
<path d="M212.768 128.408C213.42 114.578 202.303 102.955 188.101 102.219C183.045 101.355 175.382 100.726 168.45 101.276C160.899 101.875 153.31 104.231 146.325 105.684L146.325 105.685C146.116 105.729 145.909 105.772 145.704 105.817C143.051 106.396 141.092 107.657 139.669 109.425C138.288 111.14 137.499 113.224 136.949 115.316C136.404 117.389 136.041 119.701 135.645 121.845C135.239 124.048 134.785 126.166 134.054 128.129C132.939 131.121 131.052 133.769 128.878 136.04C126.116 138.923 124.494 142.506 124.827 145.839C124.996 147.539 125.679 149.139 126.936 150.428C128.184 151.707 129.896 152.577 131.971 153.016C142.72 155.29 157.25 157.184 168.994 157.227C179.768 157.266 192.636 156.613 201.695 149.32C208.011 144.236 212.392 136.382 212.768 128.408Z" fill="#373024" stroke="black" stroke-width="4"/>
<path d="M136.47 146.531C141.38 143.248 144.352 139.025 146.026 134.448C149.317 125.448 147.54 115.14 146.291 108.102L146.071 106.867L144.865 106.527L144.549 106.437C139.617 105.043 135.641 103.914 131.152 101.56C126.663 99.2054 121.577 95.5779 114.605 89.1138L111.707 86.4275L111.258 90.3533C109.575 105.058 102.867 112.82 95.341 116.806C87.6842 120.861 78.9211 121.138 73.1183 120.302L69.9098 119.839L70.9356 122.913C71.9349 125.91 74.6568 128.861 77.9346 131.59C81.2853 134.379 85.5211 137.18 89.9686 139.819C98.8678 145.101 108.848 149.873 114.811 152.746L115.315 152.988L115.872 152.934C124.896 152.06 131.587 149.795 136.47 146.531Z" fill="#FCE5B5" stroke="black" stroke-width="4"/>
<path d="M123.911 97.9768C122.883 91.0242 121.218 87.008 118.801 85.0038C116.175 82.8264 113.245 83.4667 111.406 83.9271L109.88 84.3088L109.891 85.8823C110.03 103.731 103.778 113.006 96.3548 117.612C88.7807 122.312 79.5316 122.44 73.3043 121.049L70.5767 120.441L70.8804 123.219C71.117 125.384 71.2202 126.762 71.3034 127.726C71.377 128.578 71.4457 129.405 71.7249 130.101C72.0507 130.914 72.6146 131.435 72.9712 131.792C73.3754 132.196 73.9474 132.768 74.8186 133.844L75.1843 134.296L75.7345 134.481C91.9042 139.92 104.72 135.466 113.098 127.224C121.354 119.102 125.291 107.303 123.911 97.9768Z" fill="#F8A90B" stroke="black" stroke-width="4" stroke-linecap="round"/>
<path d="M61.1241 116.232C68.0904 122.115 86.1359 129.694 102.587 112.944C107.56 104.189 114.383 83.9061 101.889 72.8188C99.7606 67.4726 95.4439 56.1121 95.203 53.4396C94.9019 50.0991 87.6186 44.0202 81.8408 54.6441C77.4487 62.7203 81.5195 70.2361 84.4693 73.4327C73.1385 61.8173 58.4006 50.3193 47.9077 56.8039C42.3712 60.2254 46.8347 66.2646 53.0014 71.4601C46.1649 67.7812 38.1981 65.7327 32.9983 70.7211C26.395 77.0559 38.4486 84.7665 49.4352 89.677C44.5127 88.4696 40.014 88.5765 37.7822 88.9255C15.9939 96.2783 44.265 110.194 61.1241 116.232Z" fill="#373024"/>
<path d="M84.9222 73.8989C81.9692 71.0219 77.2186 63.1433 81.8408 54.6441C87.6186 44.0202 94.9019 50.0991 95.203 53.4396C95.4439 56.1121 99.7606 67.4726 101.889 72.8188C114.383 83.9061 107.56 104.189 102.587 112.944C86.1359 129.694 68.0904 122.115 61.1241 116.232C44.265 110.194 15.9939 96.2783 37.7822 88.9255C41.1767 88.3947 49.8154 88.4238 57.2135 92.7861C45.6979 88.7349 24.7331 78.6503 32.9983 70.7211C41.2636 62.7919 56.5202 72.6424 63.1154 78.5587C54.5017 73.4976 39.401 62.061 47.9077 56.8039C58.541 50.2325 73.5336 62.1282 84.9222 73.8989ZM84.9222 73.8989C82.3288 76.6771 78.3387 84.5505 83.1255 93.818" stroke="black" stroke-width="4" stroke-linecap="round"/>
</svg>
